<?xml version="1.0" encoding="UTF-8" standalone="no"?>
<!-- Created with Inkscape (http://www.inkscape.org/) -->

<svg
   width="188.69778mm"
   height="141.55354mm"
   viewBox="0 0 188.69779 141.55354"
   version="1.1"
   id="svg1"
   xml:space="preserve"
   xmlns="http://www.w3.org/2000/svg"
   xmlns:svg="http://www.w3.org/2000/svg"><defs
     id="defs1" /><g
     id="layer1"
     transform="translate(-1025.6934,-608.88194)"><g
       id="g286"><path
         id="path21"
         style="fill:#e8efef;fill-opacity:1;stroke:#22262c;stroke-width:2.11667;stroke-linecap:round;stroke-linejoin:round;stroke-miterlimit:3.8;stroke-dasharray:none;paint-order:markers fill stroke"
         d="m 1114.457,642.16872 c -3.5377,-0.0108 -7.8702,0.008 -11.0491,0.11442 -7.9126,0.27144 -17.3986,2.64558 -17.3986,2.64558 0,0 -11.9959,3.4965 -20.7704,6.12885 -8.7745,2.63235 -8.9057,5.55885 -10.9133,9.65197 -3.7387,7.62236 -6.4164,15.46494 -9.7068,26.87183 -3.2904,11.40682 -8.2971,30.47364 -8.2261,38.71749 0.078,9.10576 1.4556,14.68468 8.2261,20.18136 9.7286,7.8982 17.1103,-2.63235 17.1103,-2.63235 0,0 9.8559,-13.20693 17.1102,-21.49754 7.6778,-8.77446 21.2782,-8.33579 21.2782,-8.33579 h 20.2353 0.3847 20.2353 c 0,0 13.6004,-0.43867 21.2782,8.33579 7.2543,8.29061 17.1102,21.49754 17.1102,21.49754 0,0 7.3816,10.53055 17.1103,2.63235 6.7705,-5.49668 8.1476,-11.0756 8.2261,-20.18136 0.071,-8.24385 -4.9357,-27.31067 -8.2261,-38.71749 -3.2905,-11.40689 -5.9681,-19.24947 -9.7068,-26.87183 -2.0076,-4.09312 -2.1388,-7.01962 -10.9132,-9.65197 -8.7746,-2.63235 -20.7705,-6.12885 -20.7705,-6.12885 0,0 -9.4859,-2.37414 -17.3986,-2.64558 -6.2604,-0.21482 -16.8099,-0.0713 -17.1373,-0.0672 -0.1611,0 -2.6588,-0.0373 -6.0881,-0.0473 z" /><path
         style="fill:#b1c5c7;fill-opacity:1;stroke:#22262c;stroke-width:2.11667;stroke-linecap:round;stroke-linejoin:round;stroke-miterlimit:3.8;stroke-dasharray:none;stroke-opacity:1;paint-order:markers fill stroke"
         d="m 1059.0872,652.34779 c 1.6287,-3.41243 3.2574,-6.51471 8.221,-8.76382 4.9636,-2.24914 11.0906,-4.34308 14.6582,-4.88605 3.5675,-0.54289 5.8813,-0.94018 9.772,2.0165 0.4832,0.3672 1.7903,2.41314 1.7903,2.41314 l -6.0882,1.10749 z"
         id="path28" /><path
         style="fill:#b1c5c7;fill-opacity:1;stroke:#22262c;stroke-width:2.11667;stroke-linecap:round;stroke-linejoin:round;stroke-miterlimit:3.8;stroke-dasharray:none;stroke-opacity:1;paint-order:markers fill stroke"
         d="m 1070.3523,635.60584 18.0974,-0.16449 c 0,0 0.019,-5.86553 0.055,-9.15841 0.067,-6.17404 -1.0968,-16.39733 -8.7195,-16.34245 -7.6229,0.0547 -9.5972,9.97125 -9.5972,16.34245 0,3.82482 0.1646,9.3229 0.1646,9.3229 z"
         id="path30" /><path
         style="fill:#b1c5c7;fill-opacity:1;stroke:#22262c;stroke-width:2.11667;stroke-linecap:round;stroke-linejoin:round;stroke-miterlimit:3.8;stroke-dasharray:none;stroke-opacity:1;paint-order:markers fill stroke"
         d="m 1068.3299,662.2227 c -0.035,-1.58786 0.6715,-4.06161 4.0287,-4.13225 3.3572,-0.0713 4.6295,2.29234 4.6295,4.13225 0,2.96465 -1.661,6.39715 -4.3115,6.39715 -2.6504,0 -4.3467,-3.19853 -4.3467,-6.39715 z"
         id="path31" /><path
         style="fill:#22262c;fill-opacity:1;stroke:none;stroke-width:3.60597;stroke-linecap:round;stroke-linejoin:round;stroke-miterlimit:3.8;stroke-dasharray:none;stroke-opacity:1;paint-order:markers fill stroke"
         id="path35"
         d="m 2013.9245,3173.6665 c -0.5889,-1.02 8.6373,-17.0002 9.8151,-17.0002 1.1778,0 10.404,15.9802 9.8151,17.0002 -0.5889,1.02 -19.0413,1.02 -19.6302,0 z"
         transform="matrix(0.15530795,0,0,0.15530795,758.35547,169.58209)" /><path
         style="fill:#b1c5c7;fill-opacity:1;stroke:#22262c;stroke-width:2.11667;stroke-linecap:round;stroke-linejoin:round;stroke-miterlimit:3.8;stroke-dasharray:none;stroke-opacity:1;paint-order:markers fill stroke"
         d="m 1068.3299,682.03513 c -0.035,1.58786 0.6715,4.06161 4.0287,4.13224 3.3572,0.0713 4.6295,-2.29233 4.6295,-4.13224 0,-2.96465 -1.661,-6.39715 -4.3115,-6.39715 -2.6504,0 -4.3467,3.19853 -4.3467,6.39715 z"
         id="path53" /><path
         style="fill:#22262c;fill-opacity:1;stroke:none;stroke-width:3.60597;stroke-linecap:round;stroke-linejoin:round;stroke-miterlimit:3.8;stroke-dasharray:none;stroke-opacity:1;paint-order:markers fill stroke"
         id="path54"
         d="m 2013.9245,3173.6665 c -0.5889,-1.02 8.6373,-17.0002 9.8151,-17.0002 1.1778,0 10.404,15.9802 9.8151,17.0002 -0.5889,1.02 -19.0413,1.02 -19.6302,0 z"
         transform="matrix(0.15530795,0,0,-0.15530795,758.35547,1174.6757)" /><path
         style="fill:#b1c5c7;fill-opacity:1;stroke:#22262c;stroke-width:2.11667;stroke-linecap:round;stroke-linejoin:round;stroke-miterlimit:3.8;stroke-dasharray:none;stroke-opacity:1;paint-order:markers fill stroke"
         d="m 1081.9211,676.31524 c 1.5878,0.0353 4.0616,-0.67145 4.1322,-4.02869 0.071,-3.35722 -2.2923,-4.62944 -4.1322,-4.62944 -2.9647,0 -6.3972,1.66095 -6.3972,4.31141 0,2.65043 3.1986,4.34672 6.3972,4.34672 z"
         id="path57" /><path
         style="fill:#22262c;fill-opacity:1;stroke:none;stroke-width:3.60597;stroke-linecap:round;stroke-linejoin:round;stroke-miterlimit:3.8;stroke-dasharray:none;stroke-opacity:1;paint-order:markers fill stroke"
         id="path58"
         d="m 2013.9245,3173.6665 c -0.5889,-1.02 8.6373,-17.0002 9.8151,-17.0002 1.1778,0 10.404,15.9802 9.8151,17.0002 -0.5889,1.02 -19.0413,1.02 -19.6302,0 z"
         transform="matrix(0,-0.15530795,-0.15530795,0,1574.5617,986.28963)" /><rect
         style="fill:#000000;stroke:none;stroke-width:1.05833;stroke-linecap:round;stroke-linejoin:round;stroke-miterlimit:3.8;stroke-dasharray:none;paint-order:markers stroke fill"
         id="rect172"
         width="47.373104"
         height="1.1159873"
         x="-1073.4738"
         y="671.5658"
         ry="0.55799365"
         transform="scale(-1,1)" /><path
         style="fill:#b1c5c7;fill-opacity:1;stroke:#22262c;stroke-width:2.11667;stroke-linecap:round;stroke-linejoin:round;stroke-miterlimit:3.8;stroke-dasharray:none;stroke-opacity:1;paint-order:markers fill stroke"
         d="m 1062.7018,676.31526 c -1.5879,0.0353 -4.0616,-0.67146 -4.1322,-4.02869 -0.071,-3.35723 2.2923,-4.62944 4.1322,-4.62944 2.9646,0 6.3971,1.66095 6.3971,4.3114 0,2.65044 -3.1985,4.34673 -6.3971,4.34673 z"
         id="path172" /><path
         style="fill:#22262c;fill-opacity:1;stroke:none;stroke-width:3.60597;stroke-linecap:round;stroke-linejoin:round;stroke-miterlimit:3.8;stroke-dasharray:none;stroke-opacity:1;paint-order:markers fill stroke"
         id="path188"
         d="m 2013.9245,3173.6665 c -0.5889,-1.02 8.6373,-17.0002 9.8151,-17.0002 1.1778,0 10.404,15.9802 9.8151,17.0002 -0.5889,1.02 -19.0413,1.02 -19.6302,0 z"
         transform="matrix(0,-0.15530795,0.15530795,0,570.06116,986.28963)" /><circle
         style="fill:#5f7784;fill-opacity:1;stroke:#22262c;stroke-width:2.11667;stroke-linecap:round;stroke-linejoin:round;stroke-miterlimit:3.8;stroke-dasharray:none;stroke-opacity:1;paint-order:markers fill stroke"
         id="circle188"
         cx="1098.0667"
         cy="693.20819"
         r="10.302357" /><circle
         style="fill:#b1c5c7;fill-opacity:1;stroke:#22262c;stroke-width:2.11667;stroke-linecap:round;stroke-linejoin:round;stroke-miterlimit:3.8;stroke-dasharray:none;stroke-opacity:1;paint-order:markers fill stroke"
         id="circle189"
         cx="1098.0667"
         cy="693.20819"
         r="6.6751595" /><circle
         style="fill:#b1c5c7;fill-opacity:1;stroke:#22262c;stroke-width:2.11667;stroke-linecap:round;stroke-linejoin:round;stroke-miterlimit:3.8;stroke-dasharray:none;stroke-opacity:1;paint-order:markers fill stroke"
         id="circle190"
         cx="1107.7537"
         cy="669.00378"
         r="4.0033236" /><path
         style="fill:#b1c5c7;fill-opacity:1;stroke:#22262c;stroke-width:2.11667;stroke-linecap:round;stroke-linejoin:round;stroke-miterlimit:3.8;stroke-dasharray:none;stroke-opacity:1;paint-order:markers fill stroke"
         d="m 1150.9681,635.60584 18.0974,-0.16449 c 0,0 0.019,-5.86553 0.055,-9.15841 0.067,-6.17404 -1.0968,-16.39733 -8.7196,-16.34245 -7.6228,0.0547 -9.5972,9.97125 -9.5972,16.34245 0,3.82482 0.1647,9.3229 0.1647,9.3229 z"
         id="path190" /><path
         style="fill:#b1c5c7;fill-opacity:1;stroke:#22262c;stroke-width:2.11667;stroke-linecap:round;stroke-linejoin:round;stroke-miterlimit:3.8;stroke-dasharray:none;stroke-opacity:1;paint-order:markers fill stroke"
         d="m 1180.851,652.34779 c -1.6287,-3.41243 -3.2574,-6.51471 -8.221,-8.76382 -4.9636,-2.24914 -11.0905,-4.34308 -14.6582,-4.88605 -3.5675,-0.54289 -5.8813,-0.94018 -9.772,2.0165 -0.4832,0.3672 -1.7903,2.41314 -1.7903,2.41314 l 6.0882,1.10749 z"
         id="path191" /><circle
         style="fill:#b1c5c7;fill-opacity:1;stroke:#22262c;stroke-width:2.11667;stroke-linecap:round;stroke-linejoin:round;stroke-miterlimit:3.8;stroke-dasharray:none;stroke-opacity:1;paint-order:markers fill stroke"
         id="circle197"
         cx="1132.6512"
         cy="669.00378"
         r="4.0033236" /><circle
         style="fill:#5f7784;fill-opacity:1;stroke:#22262c;stroke-width:2.11667;stroke-linecap:round;stroke-linejoin:round;stroke-miterlimit:3.8;stroke-dasharray:none;stroke-opacity:1;paint-order:markers fill stroke"
         id="circle198"
         cx="1142.0992"
         cy="693.20819"
         r="10.302357" /><circle
         style="fill:#b1c5c7;fill-opacity:1;stroke:#22262c;stroke-width:2.11667;stroke-linecap:round;stroke-linejoin:round;stroke-miterlimit:3.8;stroke-dasharray:none;stroke-opacity:1;paint-order:markers fill stroke"
         id="circle199"
         cx="1142.0992"
         cy="693.20819"
         r="6.6751595" /><circle
         style="fill:#b1c5c7;fill-opacity:1;stroke:#22262c;stroke-width:2.11667;stroke-linecap:round;stroke-linejoin:round;stroke-miterlimit:3.8;stroke-dasharray:none;stroke-opacity:1;paint-order:markers fill stroke"
         id="circle200"
         cx="1155.6003"
         cy="673.00708"
         r="5.3513837" /><rect
         style="fill:#000000;stroke:none;stroke-width:1.05833;stroke-linecap:round;stroke-linejoin:round;stroke-miterlimit:3.8;stroke-dasharray:none;paint-order:markers stroke fill"
         id="rect220"
         width="39.375412"
         height="1.1159873"
         x="1175.0157"
         y="661.91968"
         ry="0.55799365" /><rect
         style="fill:#000000;stroke:none;stroke-width:1.05833;stroke-linecap:round;stroke-linejoin:round;stroke-miterlimit:3.8;stroke-dasharray:none;paint-order:markers stroke fill"
         id="rect221"
         width="50.841667"
         height="1.1159873"
         x="1163.5493"
         y="671.5658"
         ry="0.55799365" /><g
         id="g223"
         transform="matrix(0.82908592,0,0,0.82908592,249.55344,-460.65724)"
         style="fill:#000000;stroke-width:1.20615"><rect
           style="fill:#000000;stroke:none;stroke-width:1.2765;stroke-linecap:round;stroke-linejoin:round;stroke-miterlimit:3.8;stroke-dasharray:none;paint-order:markers stroke fill"
           id="rect222"
           width="49.940159"
           height="1.3460454"
           x="1113.7965"
           y="1388.5332"
           ry="0.67302269" /><rect
           style="fill:#000000;stroke:none;stroke-width:1.2765;stroke-linecap:round;stroke-linejoin:round;stroke-miterlimit:3.8;stroke-dasharray:none;paint-order:markers stroke fill"
           id="rect223"
           width="4.2333393"
           height="1.3460454"
           x="1766.6914"
           y="193.70872"
           ry="0.67302269"
           transform="rotate(45)" /></g><g
         id="g225"
         transform="matrix(0.82908592,0,0,0.82908592,250.40352,-460.65724)"
         style="fill:#000000;stroke-width:1.20615"><rect
           style="fill:#000000;stroke:none;stroke-width:1.2765;stroke-linecap:round;stroke-linejoin:round;stroke-miterlimit:3.8;stroke-dasharray:none;paint-order:markers stroke fill"
           id="rect224"
           width="35.78495"
           height="1.3460454"
           x="1126.9264"
           y="1377.2223"
           ry="0.67302269" /><rect
           style="fill:#000000;stroke:none;stroke-width:1.2765;stroke-linecap:round;stroke-linejoin:round;stroke-miterlimit:3.8;stroke-dasharray:none;paint-order:markers stroke fill"
           id="rect225"
           width="4.2333393"
           height="1.3460454"
           x="1768.0605"
           y="176.33255"
           ry="0.67302269"
           transform="rotate(45)" /></g><g
         id="g227"
         transform="matrix(0.82908592,0,0,0.82908592,249.8839,-460.65724)"
         style="fill:#000000;stroke-width:1.20615"><rect
           style="fill:#000000;stroke:none;stroke-width:1.2765;stroke-linecap:round;stroke-linejoin:round;stroke-miterlimit:3.8;stroke-dasharray:none;paint-order:markers stroke fill"
           id="rect226"
           width="17.520887"
           height="1.2581806"
           x="-204.50539"
           y="1711.9302"
           ry="0.62909031"
           transform="rotate(-45)" /><rect
           style="fill:#000000;stroke:none;stroke-width:1.2765;stroke-linecap:round;stroke-linejoin:round;stroke-miterlimit:3.8;stroke-dasharray:none;paint-order:markers stroke fill"
           id="rect227"
           width="85.683662"
           height="1.3460454"
           x="1077.6544"
           y="1342.9955"
           ry="0.67302269" /></g><g
         id="g229"
         transform="matrix(-0.82908592,0,0,0.82908592,1991.5708,-460.65724)"
         style="fill:#000000;stroke-width:1.20615"><rect
           style="fill:#000000;stroke:none;stroke-width:1.2765;stroke-linecap:round;stroke-linejoin:round;stroke-miterlimit:3.8;stroke-dasharray:none;paint-order:markers stroke fill"
           id="rect228"
           width="42.749725"
           height="1.3460454"
           x="-980.14313"
           y="1320.7999"
           ry="0.67302269"
           transform="scale(-1,1)" /><rect
           style="fill:#000000;stroke:none;stroke-width:1.2765;stroke-linecap:round;stroke-linejoin:round;stroke-miterlimit:3.8;stroke-dasharray:none;paint-order:markers stroke fill"
           id="rect229"
           width="10.709816"
           height="1.3460454"
           x="-1644.1952"
           y="-188.17137"
           ry="0.67302269"
           transform="matrix(-0.5,-0.8660254,-0.8660254,0.5,0,0)" /></g><circle
         style="fill:#b1c5c7;fill-opacity:1;stroke:#22262c;stroke-width:2.11667;stroke-linecap:round;stroke-linejoin:round;stroke-miterlimit:3.8;stroke-dasharray:none;stroke-opacity:1;paint-order:markers fill stroke"
         id="circle229"
         cx="1177.479"
         cy="673.00708"
         r="5.3513837" /><circle
         style="fill:#b1c5c7;fill-opacity:1;stroke:#22262c;stroke-width:2.11667;stroke-linecap:round;stroke-linejoin:round;stroke-miterlimit:3.8;stroke-dasharray:none;stroke-opacity:1;paint-order:markers fill stroke"
         id="circle230"
         cx="1166.6205"
         cy="683.53644"
         r="5.3513837" /><circle
         style="fill:#b1c5c7;fill-opacity:1;stroke:#22262c;stroke-width:2.11667;stroke-linecap:round;stroke-linejoin:round;stroke-miterlimit:3.8;stroke-dasharray:none;stroke-opacity:1;paint-order:markers fill stroke"
         id="circle231"
         cx="1166.6205"
         cy="662.14862"
         r="5.3513837" /><path
         style="fill:#22262c;fill-opacity:0.996078;stroke:none;stroke-width:2.78421;stroke-linecap:round;stroke-linejoin:round;stroke-miterlimit:3.8;stroke-dasharray:none;stroke-opacity:1;paint-order:markers fill stroke"
         id="path231"
         d="m 2013.9245,3173.6665 c -0.5889,-1.02 8.6373,-17.0002 9.8151,-17.0002 1.1778,0 10.404,15.9802 9.8151,17.0002 -0.5889,1.02 -19.0413,1.02 -19.6302,0 z"
         transform="matrix(0.20114693,0,0,0.20114693,759.55149,25.40821)" /><path
         style="fill:#22262c;fill-opacity:0.996078;stroke:none;stroke-width:2.78421;stroke-linecap:round;stroke-linejoin:round;stroke-miterlimit:3.8;stroke-dasharray:none;stroke-opacity:1;paint-order:markers fill stroke"
         id="path232"
         d="m 2013.9245,3173.6665 c -0.5889,-1.02 8.6373,-17.0002 9.8151,-17.0002 1.1778,0 10.404,15.9802 9.8151,17.0002 -0.5889,1.02 -19.0413,1.02 -19.6302,0 z"
         transform="matrix(0.20114693,0,0,-0.20114693,759.55149,1320.2768)" /><path
         style="fill:#22262c;fill-opacity:0.996078;stroke:none;stroke-width:2.78421;stroke-linecap:round;stroke-linejoin:round;stroke-miterlimit:3.8;stroke-dasharray:none;stroke-opacity:1;paint-order:markers fill stroke"
         id="path233"
         d="m 2013.9245,3173.6665 c -0.5889,-1.02 8.6373,-17.0002 9.8151,-17.0002 1.1778,0 10.404,15.9802 9.8151,17.0002 -0.5889,1.02 -19.0413,1.02 -19.6302,0 z"
         transform="matrix(0,0.20114693,0.20114693,0,518.85986,265.93812)" /><path
         style="fill:#22262c;fill-opacity:0.996078;stroke:none;stroke-width:2.78421;stroke-linecap:round;stroke-linejoin:round;stroke-miterlimit:3.8;stroke-dasharray:none;stroke-opacity:1;paint-order:markers fill stroke"
         id="path234"
         d="m 2013.9245,3173.6665 c -0.5889,-1.02 8.6373,-17.0002 9.8151,-17.0002 1.1778,0 10.404,15.9802 9.8151,17.0002 -0.5889,1.02 -19.0413,1.02 -19.6302,0 z"
         transform="matrix(0,0.20114693,-0.20114693,0,1814.2195,265.93812)" /><rect
         style="fill:#000000;stroke:none;stroke-width:1.05833;stroke-linecap:round;stroke-linejoin:round;stroke-miterlimit:3.8;stroke-dasharray:none;paint-order:markers stroke fill"
         id="rect234"
         width="39.375412"
         height="1.1159873"
         x="-1065.0688"
         y="661.91968"
         ry="0.55799365"
         transform="scale(-1,1)" /><g
         id="g239"
         transform="matrix(-0.82908592,0,0,0.82908592,1990.9382,-460.65723)"
         style="fill:#000000;stroke-width:1.20615"><rect
           style="fill:#000000;stroke:none;stroke-width:1.2765;stroke-linecap:round;stroke-linejoin:round;stroke-miterlimit:3.8;stroke-dasharray:none;paint-order:markers stroke fill"
           id="rect235"
           width="49.940159"
           height="1.3460454"
           x="1113.7965"
           y="1388.5332"
           ry="0.67302269" /><rect
           style="fill:#000000;stroke:none;stroke-width:1.2765;stroke-linecap:round;stroke-linejoin:round;stroke-miterlimit:3.8;stroke-dasharray:none;paint-order:markers stroke fill"
           id="rect238"
           width="4.2333393"
           height="1.3460454"
           x="1766.6914"
           y="193.70872"
           ry="0.67302269"
           transform="rotate(45)" /></g><g
         id="g248"
         transform="matrix(-0.82908592,0,0,0.82908592,1990.0881,-460.65723)"
         style="fill:#000000;stroke-width:1.20615"><rect
           style="fill:#000000;stroke:none;stroke-width:1.2765;stroke-linecap:round;stroke-linejoin:round;stroke-miterlimit:3.8;stroke-dasharray:none;paint-order:markers stroke fill"
           id="rect247"
           width="35.78495"
           height="1.3460454"
           x="1126.9264"
           y="1377.2223"
           ry="0.67302269" /><rect
           style="fill:#000000;stroke:none;stroke-width:1.2765;stroke-linecap:round;stroke-linejoin:round;stroke-miterlimit:3.8;stroke-dasharray:none;paint-order:markers stroke fill"
           id="rect248"
           width="4.2333393"
           height="1.3460454"
           x="1768.0605"
           y="176.33255"
           ry="0.67302269"
           transform="rotate(45)" /></g><g
         id="g253"
         transform="matrix(0.82908592,0,0,0.82908592,246.90539,-460.65723)"
         style="fill:#000000;stroke-width:1.20615"><rect
           style="fill:#000000;stroke:none;stroke-width:1.2765;stroke-linecap:round;stroke-linejoin:round;stroke-miterlimit:3.8;stroke-dasharray:none;paint-order:markers stroke fill"
           id="rect252"
           width="35.797169"
           height="1.3460454"
           x="273.7623"
           y="1703.1465"
           ry="0.67302269"
           transform="matrix(-0.70710678,0.70710678,0.70710678,0.70710678,0,0)" /><rect
           style="fill:#000000;stroke:none;stroke-width:1.2765;stroke-linecap:round;stroke-linejoin:round;stroke-miterlimit:3.8;stroke-dasharray:none;paint-order:markers stroke fill"
           id="rect253"
           width="47.146309"
           height="1.3460454"
           x="-986.97058"
           y="1422.5256"
           ry="0.67302269"
           transform="scale(-1,1)" /></g><g
         id="g255"
         transform="matrix(0.82908592,0,0,0.82908592,248.92082,-460.65723)"
         style="fill:#000000;stroke-width:1.20615"><rect
           style="fill:#000000;stroke:none;stroke-width:1.2765;stroke-linecap:round;stroke-linejoin:round;stroke-miterlimit:3.8;stroke-dasharray:none;paint-order:markers stroke fill"
           id="rect254"
           width="42.749725"
           height="1.3460454"
           x="-980.14313"
           y="1320.7999"
           ry="0.67302269"
           transform="scale(-1,1)" /><rect
           style="fill:#000000;stroke:none;stroke-width:1.2765;stroke-linecap:round;stroke-linejoin:round;stroke-miterlimit:3.8;stroke-dasharray:none;paint-order:markers stroke fill"
           id="rect255"
           width="10.709816"
           height="1.3460454"
           x="-1644.1952"
           y="-188.17137"
           ry="0.67302269"
           transform="matrix(-0.5,-0.8660254,-0.8660254,0.5,0,0)" /></g><rect
         style="fill:#000000;stroke:none;stroke-width:1.05833;stroke-linecap:round;stroke-linejoin:round;stroke-miterlimit:3.8;stroke-dasharray:none;paint-order:markers stroke fill"
         id="rect256"
         width="39.375412"
         height="1.1159873"
         x="-1065.476"
         y="619.24414"
         ry="0.55799365"
         transform="scale(-1,1)" /><text
         xml:space="preserve"
         style="font-size:9.85717px;font-family:Knicknack;-inkscape-font-specification:Knicknack;text-align:start;writing-mode:lr-tb;direction:ltr;text-anchor:start;fill:#22262c;fill-opacity:1;stroke:#172531;stroke-width:2.11667;stroke-linecap:round;stroke-linejoin:round;stroke-miterlimit:3.8;stroke-dasharray:none;stroke-opacity:1;paint-order:markers fill stroke"
         x="1074.8474"
         y="632.47345"
         id="text258"><tspan
           id="tspan258"
           style="fill:#22262c;fill-opacity:1;stroke:none;stroke-width:2.11667"
           x="1074.8474"
           y="632.47345">LT</tspan></text><text
         xml:space="preserve"
         style="font-size:9.85717px;font-family:Knicknack;-inkscape-font-specification:Knicknack;text-align:start;writing-mode:lr-tb;direction:ltr;text-anchor:start;fill:#22262c;fill-opacity:1;stroke:#172531;stroke-width:2.11667;stroke-linecap:round;stroke-linejoin:round;stroke-miterlimit:3.8;stroke-dasharray:none;stroke-opacity:1;paint-order:markers fill stroke"
         x="1154.6002"
         y="632.47345"
         id="text259"><tspan
           id="tspan259"
           style="fill:#22262c;fill-opacity:1;stroke:none;stroke-width:2.11667"
           x="1154.6002"
           y="632.47345">RT</tspan></text><text
         xml:space="preserve"
         style="font-size:5.8348px;font-family:Knicknack;-inkscape-font-specification:Knicknack;text-align:start;writing-mode:lr-tb;direction:ltr;text-anchor:start;fill:#22262c;fill-opacity:1;stroke:none;stroke-width:2.11667;stroke-linecap:round;stroke-linejoin:round;stroke-miterlimit:3.8;stroke-dasharray:none;stroke-opacity:1;paint-order:markers fill stroke"
         x="897.05133"
         y="875.06708"
         id="text260"
         transform="rotate(-13.222216)"><tspan
           id="tspan260"
           style="fill:#22262c;fill-opacity:1;stroke-width:2.11667"
           x="897.05133"
           y="875.06708">LB</tspan></text><text
         xml:space="preserve"
         style="font-size:5.8348px;font-family:Knicknack;-inkscape-font-specification:Knicknack;text-align:start;writing-mode:lr-tb;direction:ltr;text-anchor:start;fill:#22262c;fill-opacity:1;stroke:none;stroke-width:2.11667;stroke-linecap:round;stroke-linejoin:round;stroke-miterlimit:3.8;stroke-dasharray:none;stroke-opacity:1;paint-order:markers fill stroke"
         x="1296.8804"
         y="282.76566"
         id="text261"
         transform="rotate(16.777784)"><tspan
           id="tspan261"
           style="fill:#22262c;fill-opacity:1;stroke-width:2.11667"
           x="1296.8804"
           y="282.76566">RB</tspan></text><text
         xml:space="preserve"
         style="font-size:6.21591px;font-family:Knicknack;-inkscape-font-specification:Knicknack;text-align:start;writing-mode:lr-tb;direction:ltr;text-anchor:start;fill:#22262c;fill-opacity:1;stroke:none;stroke-width:2.11667;stroke-linecap:round;stroke-linejoin:round;stroke-miterlimit:3.8;stroke-dasharray:none;stroke-opacity:1;paint-order:markers fill stroke"
         x="1094.9293"
         y="695.40509"
         id="text262"><tspan
           id="tspan262"
           style="fill:#22262c;fill-opacity:1;stroke-width:2.11667"
           x="1094.9293"
           y="695.40509">LS</tspan></text><text
         xml:space="preserve"
         style="font-size:6.21591px;font-family:Knicknack;-inkscape-font-specification:Knicknack;text-align:start;writing-mode:lr-tb;direction:ltr;text-anchor:start;fill:#22262c;fill-opacity:1;stroke:none;stroke-width:2.11667;stroke-linecap:round;stroke-linejoin:round;stroke-miterlimit:3.8;stroke-dasharray:none;stroke-opacity:1;paint-order:markers fill stroke"
         x="1138.7285"
         y="695.40509"
         id="text263"><tspan
           id="tspan263"
           style="fill:#22262c;fill-opacity:1;stroke-width:2.11667"
           x="1138.7285"
           y="695.40509">RS</tspan></text><g
         id="g282"
         transform="matrix(-0.82908592,0,0,0.82908592,1993.5862,-460.65723)"
         style="fill:#000000;stroke-width:1.20615"><rect
           style="fill:#000000;stroke:none;stroke-width:1.2765;stroke-linecap:round;stroke-linejoin:round;stroke-miterlimit:3.8;stroke-dasharray:none;paint-order:markers stroke fill"
           id="rect268"
           width="35.797169"
           height="1.3460454"
           x="273.7623"
           y="1703.1465"
           ry="0.67302269"
           transform="matrix(-0.70710678,0.70710678,0.70710678,0.70710678,0,0)" /><rect
           style="fill:#000000;stroke:none;stroke-width:1.2765;stroke-linecap:round;stroke-linejoin:round;stroke-miterlimit:3.8;stroke-dasharray:none;paint-order:markers stroke fill"
           id="rect282"
           width="47.146309"
           height="1.3460454"
           x="-986.97058"
           y="1422.5256"
           ry="0.67302269"
           transform="scale(-1,1)" /></g><rect
         style="fill:#000000;stroke:none;stroke-width:1.05833;stroke-linecap:round;stroke-linejoin:round;stroke-miterlimit:3.8;stroke-dasharray:none;paint-order:markers stroke fill"
         id="rect283"
         width="39.375412"
         height="1.1159873"
         x="-1214.3911"
         y="619.24414"
         ry="0.55799365"
         transform="scale(-1,1)" /><g
         id="g285"
         transform="matrix(-0.82908592,0,0,0.82908592,1990.2006,-460.65724)"
         style="fill:#000000;stroke-width:1.20615"><rect
           style="fill:#000000;stroke:none;stroke-width:1.2765;stroke-linecap:round;stroke-linejoin:round;stroke-miterlimit:3.8;stroke-dasharray:none;paint-order:markers stroke fill"
           id="rect284"
           width="17.520887"
           height="1.2581806"
           x="-204.50539"
           y="1711.9302"
           ry="0.62909031"
           transform="rotate(-45)" /><rect
           style="fill:#000000;stroke:none;stroke-width:1.2765;stroke-linecap:round;stroke-linejoin:round;stroke-miterlimit:3.8;stroke-dasharray:none;paint-order:markers stroke fill"
           id="rect285"
           width="85.683662"
           height="1.3460454"
           x="1077.6544"
           y="1342.9955"
           ry="0.67302269" /></g></g></g></svg>
